HIERARCHY
ROOT pelvis
{
  OFFSET 0 100 0
  CHANNELS 6 Xposition Yposition Zposition Zrotation Xrotation Yrotation
  JOINT pelvis_right_femur
  {
    OFFSET -10.78128 -3.44521 -0.5502486
    CHANNELS 3 Zrotation Xrotation Yrotation
    JOINT right_femur_tibia
    {
      OFFSET -0.8047443 -44.0398 -0.1307829
      CHANNELS 3 Zrotation Xrotation Yrotation
      JOINT right_tibia_foot
      {
        OFFSET 3.006224 -47.83518 -5
        CHANNELS 3 Zrotation Xrotation Yrotation
        End Site
        {
          OFFSET 0 -5 15
        }
      }
    }
  }
  JOINT pelvis_left_femur
  {
    OFFSET 10.78128 -3.44521 -0.5502486
    CHANNELS 3 Zrotation Xrotation Yrotation
    JOINT left_femur_tibia
    {
      OFFSET 0.8047443 -44.0398 -0.1307829
      CHANNELS 3 Zrotation Xrotation Yrotation
      JOINT left_tibia_foot
      {
        OFFSET -4.370144 -48.10324 -4.275266
        CHANNELS 3 Zrotation Xrotation Yrotation
        End Site
        {
          OFFSET 0 -5 15
        }
      }
    }
  }
  JOINT pelvis_spine1
  {
    OFFSET 0 6.468898 -3.129235
    CHANNELS 3 Zrotation Xrotation Yrotation
    JOINT spine1
    {
      OFFSET 0 23.15396 4.99043
      CHANNELS 3 Zrotation Xrotation Yrotation
      JOINT spine2
      {
        OFFSET 0 20.79997 -5.064912
        CHANNELS 3 Zrotation Xrotation Yrotation
        JOINT neck
        {
          OFFSET 0 14.38658 9.616178
          CHANNELS 3 Zrotation Xrotation Yrotation
          End Site
          {
            OFFSET 0 20 0
          }
        }
      }
      JOINT right_manubrium
      {
        OFFSET -5.722621 16.35077 3.967754
        CHANNELS 3 Zrotation Xrotation Yrotation
        JOINT right_clavicle
        {
          OFFSET -13.16364 1.694482 -4.693211
          CHANNELS 3 Zrotation Xrotation Yrotation
          JOINT right_humerus
          {
            OFFSET -28.5034 -0.3100689 -2.792744
            CHANNELS 3 Zrotation Xrotation Yrotation
            JOINT right_radius
            {
              OFFSET -25.15693 0.02248979 -1.271978
              CHANNELS 3 Zrotation Xrotation Yrotation
              End Site
              {
                OFFSET -15 0 0
              }
            }
          }
        }
      }
      JOINT left_manubrium
      {
        OFFSET 5.722621 16.35077 3.967754
        CHANNELS 3 Zrotation Xrotation Yrotation
        JOINT left_clavicle
        {
          OFFSET 13.16364 1.694482 -4.693211
          CHANNELS 3 Zrotation Xrotation Yrotation
          JOINT left_humerus
          {
            OFFSET 29.39168 -1.063119 -2.237045
            CHANNELS 3 Zrotation Xrotation Yrotation
            JOINT left_radius
            {
              OFFSET 24.59957 -0.9528479 0.9047498
              CHANNELS 3 Zrotation Xrotation Yrotation
              End Site
              {
                OFFSET 15 -0 -0
              }
            }
          }
        }
      }
    }
  }
}
MOTION
Frames: 11
Frame Time: 0.0416666666667
0 103.5113 0 1.523293 -2.582271 0.04277221 1.916465 -13.6762 6.938414 -0 38.80877 -0 -6.561984 -14.38831 -4.302819 -7.247398 11.96878 -24.1729 -0 6.877187 -0 -1.008107 -20.99362 23.22765 -3.85968 -3.286329 3.946125 1.650695 8.754625 -8.117651 0.1582853 23.27394 8.563203 5.358573 -21.68624 7.473442 7.624126 -19.30508 11.57677 86.63584 37.18137 -22.7028 -0 0 16.07771 -9.404848 8.58213 4.90826 4.788786 -20.17068 -4.355277 -101.3822 41.15452 29.79632 0 0 -20.49955 -12.66755 16.45798 29.16995
0.2097069 103.5904 0.9559935 1.121616 -2.315735 0.04126819 2.514815 -15.05645 7.07988 -0 40.02662 -0 -6.259332 -14.64526 -4.306449 -6.927282 12.03923 -24.46125 -0 6.481903 -0 -1.894174 -21.63714 22.84931 -3.545607 -3.021917 3.786215 1.540741 8.35243 -8.0402 0.2480345 23.12092 8.674949 5.462439 -21.61359 7.637388 7.853025 -18.99818 11.46966 85.96775 37.18167 -22.009 -0 0 16.68416 -8.958449 8.745709 4.508561 5.263189 -19.9625 -3.791957 -101.5861 40.97937 29.78421 0 0 -19.71536 -12.38676 17.01202 28.75624
0.3753465 103.3218 2.583359 0.7017476 -0.9908782 0.1352269 3.325312 -20.25185 6.243665 -0 33.35168 -0 -6.376188 -11.82737 -4.151543 -6.337472 13.10629 -23.04988 -0 5.354156 -0 -2.475481 -23.49728 20.88271 -3.38856 -2.142199 3.422893 1.956158 7.892024 -8.153502 0.5407044 22.5418 8.447099 5.250426 -22.66274 7.855014 7.105651 -18.49916 11.30885 86.33336 36.31127 -22.1491 -0 0 15.72026 -9.010001 8.550284 4.999232 5.672323 -20.27363 -3.461952 -99.05065 40.04857 26.85898 0 0 -21.58372 -10.81143 16.24811 27.05932
0.4935704 102.8454 4.736374 0.2096897 0.05447298 0.3414148 4.151552 -24.26154 5.752314 -0 29.27332 -0 -6.439698 -9.783578 -4.055898 -5.774802 13.949 -22.0455 -0 5.109006 -0 -3.467159 -24.60894 19.14809 -3.040616 -1.470184 3.074698 2.168117 7.44924 -8.22377 0.739059 22.07341 8.36409 5.183403 -23.32863 8.018361 6.716135 -17.96986 11.16182 86.4816 35.87173 -22.13853 -0 0 15.10478 -8.951243 8.583681 5.202521 6.066816 -20.42575 -3.12618 -97.3968 39.29031 24.88695 0 0 -22.67078 -9.627635 15.83813 25.84079
0.5640356 102.2625 7.389939 -0.3789354 1.035101 0.6534247 5.085616 -27.76533 5.453176 -0 26.36086 -0 -6.483306 -8.031585 -3.958297 -5.180403 14.6718 -21.18191 -0 5.570156 -0 -4.735217 -25.16203 17.37303 -2.523415 -0.8733843 2.712375 2.294394 7.002408 -8.264739 0.8928384 21.63416 8.354577 5.168784 -23.8835 8.182162 6.496087 -17.40451 11.02414 86.54316 35.67626 -22.04541 -0 0 14.60856 -8.840357 8.773963 5.305156 6.410888 -20.44941 -2.79517 -96.13799 38.5429 23.38184 0 0 -23.35281 -8.522013 15.55897 24.78044
0.5888548 101.6501 10.56542 -1.039518 1.974925 1.06369 6.089337 -30.74236 5.25906 -0 24.03627 -0 -6.554869 -6.430177 -3.834754 -4.562416 15.26645 -20.30834 -0 6.909417 -0 -6.144117 -25.04757 15.49018 -1.860448 -0.3413446 2.343507 2.38803 6.588131 -8.28597 1.006235 21.22748 8.375291 5.146607 -24.42183 8.348774 6.349758 -16.82467 10.90516 86.63503 35.64602 -21.95897 -0 0 14.06695 -8.765222 9.095509 5.41851 6.619631 -20.3671 -2.531787 -95.07801 37.73045 22.17611 0 0 -23.7937 -7.382701 15.28771 23.77708
0.5763012 101.0924 14.29992 -1.754598 2.838933 1.551367 7.109307 -32.94232 5.104593 -0 22.15464 -0 -6.679891 -5.019816 -3.662621 -3.937103 15.62832 -19.34583 -0 9.477805 -0 -7.611469 -24.0695 13.50014 -1.054366 0.1082303 1.992473 2.471075 6.241355 -8.286266 1.068364 20.88024 8.407992 5.081542 -24.96693 8.5124 6.243962 -16.24951 10.81899 86.8006 35.74705 -21.91492 -0 0 13.40536 -8.799754 9.556619 5.599777 6.623694 -20.1808 -2.36935 -94.18066 36.80092 21.26534 0 0 -23.98309 -6.162612 14.986 22.78895
0.5449983 100.6934 18.62081 -2.477073 3.539533 2.068461 8.030064 -33.91187 4.896005 -0 20.7014 -0 -6.878639 -3.950253 -3.413088 -3.347946 15.53339 -18.23642 -0 13.76269 -0 -9.033626 -22.01042 11.48014 -0.1304991 0.4399455 1.720069 2.555225 6.017117 -8.260892 1.055965 20.63971 8.44454 4.956046 -25.49553 8.646905 6.175043 -15.71647 10.79196 87.04372 35.95654 -21.93458 -0 0 12.59669 -9.039065 10.16699 5.893878 6.361562 -19.90775 -2.332501 -93.49178 35.72771 20.73054 0 0 -23.84348 -4.876702 14.64309 21.82529
0.5267597 100.5731 23.51393 -3.106515 3.945135 2.525867 8.669433 -33.09195 4.511467 -0 19.64093 -0 -7.160995 -3.439099 -3.05487 -2.870313 14.62171 -16.93602 -0 20.25207 -0 -10.27691 -18.76944 9.591485 0.8253333 0.6229769 1.635706 2.645707 5.990514 -8.202737 0.9414884 20.56291 8.482149 4.78118 -25.93277 8.697324 6.163912 -15.28412 10.86299 87.31139 36.25045 -22.0137 -0 0 11.67404 -9.596805 10.91132 6.336736 5.811358 -19.60712 -2.425625 -93.09176 34.51247 20.67051 0 0 -23.2916 -3.605174 14.2584 20.92987
0.5607746 100.841 28.89146 -3.478357 3.904285 2.795161 8.838281 -30.06227 3.876158 -0 18.78006 -0 -7.507285 -3.67497 -2.582201 -2.593308 12.47199 -15.42354 -0 29.11025 -0 -11.19365 -14.57205 8.072051 1.630154 0.6649334 1.881877 2.737922 6.238758 -8.101284 0.7156455 20.69224 8.510616 4.604057 -26.14288 8.582104 6.245149 -15.01385 11.0709 87.48093 36.59715 -22.09369 -0 0 10.73761 -10.57089 11.72292 6.942658 5.039378 -19.39651 -2.616532 -92.99435 33.171 21.0613 0 0 -22.33935 -2.461579 13.81899 20.11999
0.6723913 101.5426 34.58567 -3.402279 3.284666 2.748978 8.453418 -24.9007 3.08684 -0 17.76074 -0 -7.832403 -4.660499 -2.071238 -2.564314 8.847605 -13.72402 -0 39.70691 -0 -11.64835 -10.12163 7.212253 2.017229 0.6346637 2.56053 2.805967 6.80027 -7.936482 0.4256594 21.02261 8.48661 4.484322 -25.93919 8.229336 6.429784 -14.92744 11.42208 87.39519 36.94092 -22.02912 -0 0 9.922701 -11.97826 12.48667 7.681937 4.225586 -19.4162 -2.832263 -93.00552 31.69684 21.57808 0 0 -21.2 -1.502927 13.27503 19.28049
